<?xml version="1.0" encoding="utf-8"?>
<!-- Generator: Adobe Illustrator 23.0.6, SVG Export Plug-In . SVG Version: 6.00 Build 0)  -->
<svg version="1.1" id="Layer_1" xmlns="http://www.w3.org/2000/svg" xmlns:xlink="http://www.w3.org/1999/xlink" x="0px" y="0px"
	 viewBox="0 0 72 72" style="enable-background:new 0 0 72 72;" xml:space="preserve">
<g>
	<path d="M57.92,66.78c3.37,3.57,7.55,2.68,9.63,0c2.19-2.68,2.68-5.36-0.89-8.74l-17.47-13.9c3.17-4.27,5.16-9.63,5.16-15.48
		c0-14.19-11.61-25.81-25.8-25.81c-14.2,0-25.81,11.61-25.81,25.81c0,14.19,11.61,25.81,25.81,25.81c5.85,0,11.21-1.99,15.48-5.16
		 M28.54,46.53c-9.83,0-17.87-8.04-17.87-17.86S18.72,10.8,28.54,10.8c9.82,0,17.87,8.04,17.87,17.87
		C46.41,38.49,38.37,46.53,28.54,46.53z"/>
</g>
</svg>
